#!OML:ASF H:\MichaelJackson\Top Level 1\Subject 1\Session 1\male.ASF
:FULLY-SPECIFIED
:DEGREES
926
root 2.60177 13.8529 38.9169 5.86341 5.39365 -6.65802
lowerback 13.9579 7.37737 -4.77935
upperback 4.9895 8.89399 -4.60916
thorax -2.42792 4.41049 -3.58632
lowerneck 1.56133 -3.33767 4.31934
upperneck 0.482469 -4.36877 2.50891
head -0.141233 -2.1825 0.0872359
rclavicle -6.2816e-014 6.36111e-015
rhumerus -38.7658 24.2727 -95.9401
rradius 102.34
rwrist -3.0551
rhand -23.3832 -30.6699
rfingers 7.12502
rthumb 3.07302 299.372
lclavicle -6.2816e-014 6.36111e-015
lhumerus -44.3938 14.1894 78.8017
lradius 30.7548
lwrist 1.11701
lhand 7.2754 10.5999
lfingers 7.12502
lthumb 32.5378 37.6965
rfemur -16.5469 -10.053 29.2141
rtibia 80.9408
rfoot 49.0814 24.2117
rtoes 33.8312
lfemur -66.5701 -16.2373 -6.86028
ltibia 76.0307
lfoot -14.3801 8.42691
ltoes -0.285524
927
root 2.63717 13.9253 39.0414 5.62843 4.7832 -6.61862
lowerback 13.5382 7.40348 -4.9331
upperback 4.78766 8.93966 -4.39125
thorax -2.47652 4.4299 -3.24592
lowerneck 1.42621 -3.54984 4.07851
upperneck 0.494552 -4.66465 2.76422
head -0.1059 -2.33018 0.201364
rclavicle 7.95139e-015 2.38542e-014
rhumerus -38.9007 24.0544 -95.4391
rradius 101.84
rwrist -3.06248
rhand -23.0324 -29.7111
rfingers 7.12502
rthumb 3.41181 300.336
lclavicle 7.95139e-015 2.38542e-014
lhumerus -44.416 14.6665 78.4575
lradius 30.7532
lwrist 0.358751
lhand 7.36521 10.0396
lfingers 7.12502
lthumb 32.6233 37.1186
rfemur -18.4841 -10.9548 28.667
rtibia 82.8666
rfoot 49.3923 23.2545
rtoes 32.2161
lfemur -65.3275 -16.6852 -6.92818
ltibia 75.857
lfoot -14.915 9.43067
ltoes 0.007606
928
root 2.67541 13.9975 39.1636 5.3512 4.07222 -6.56712
lowerback 13.1152 7.45035 -5.05354
upperback 4.6032 9.01956 -4.16723
thorax -2.50019 4.46725 -2.92114
lowerneck 1.31103 -3.74178 3.83769
upperneck 0.478061 -4.93104 2.97214
head -0.0825055 -2.46377 0.300962
rclavicle -3.89618e-014 7.15625e-014
rhumerus -39.0513 23.7913 -94.8351
rradius 101.326
rwrist -3.04812
rhand -22.4812 -28.5912
rfingers 7.12502
rthumb 3.94408 301.466
lclavicle -3.89618e-014 7.15625e-014
lhumerus -44.4897 15.0433 78.0831
lradius 30.8283
lwrist -0.0149671
lhand 7.39112 9.69315
lfingers 7.12502
lthumb 32.6479 36.767
rfemur -20.5007 -11.8004 28.081
rtibia 85.0078
rfoot 48.6966 22.4366
rtoes 30.3623
lfemur -63.9942 -17.0482 -7.07605
ltibia 75.6389
lfoot -15.4221 10.3979
ltoes 0.349032
929
root 2.71645 14.0693 39.2841 5.01435 3.26648 -6.49191
lowerback 12.7039 7.5064 -5.14179
upperback 4.44079 9.11684 -3.93945
thorax -2.50253 4.51396 -2.61247
lowerneck 1.22094 -3.90055 3.60368
upperneck 0.439283 -5.15047 3.11169
head -0.0708682 -2.57443 0.379307
rclavicle -6.59965e-014 3.65764e-014
rhumerus -39.2017 23.5181 -94.15
rradius 100.775
rwrist -3.02938
rhand -21.8122 -27.4002
rfingers 7.12502
rthumb 4.59014 302.669
lclavicle -6.59965e-014 3.65764e-014
lhumerus -44.6248 15.3622 77.6424
lradius 30.9645
lwrist 0.0125277
lhand 7.43571 9.48397
lfingers 7.12502
lthumb 32.6903 36.549
rfemur -22.5538 -12.5878 27.4361
rtibia 87.3392
rfoot 46.9624 21.7053
rtoes 27.741
lfemur -62.5515 -17.3114 -7.33256
ltibia 75.3797
lfoot -15.91 11.3048
ltoes 0.775586
930
root 2.76027 14.1406 39.4031 4.61474 2.37594 -6.37332
lowerback 12.327 7.56294 -5.19328
upperback 4.29246 9.21729 -3.72364
thorax -2.50114 4.56305 -2.33985
lowerneck 1.15641 -4.02276 3.40191
upperneck 0.396865 -5.31874 3.16457
head -0.0668941 -2.65957 0.426952
rclavicle -4.05521e-014 4.29375e-014
rhumerus -39.3455 23.2376 -93.4089
rradius 100.163
rwrist -3.01636
rhand -21.0755 -26.2294
rfingers 7.12502
rthumb 5.30143 303.857
lclavicle -4.05521e-014 4.29375e-014
lhumerus -44.8408 15.6254 77.107
lradius 31.1635
lwrist 0.416466
lhand 7.51329 9.43169
lfingers 7.12502
lthumb 32.7641 36.4814
rfemur -24.635 -13.3155 26.7107
rtibia 89.8158
rfoot 44.2752 20.9392
rtoes 23.9952
lfemur -60.9982 -17.4585 -7.72602
ltibia 75.078
lfoot -16.3858 12.1267
ltoes 1.29849
931
root 2.80622 14.2105 39.5202 4.15174 1.42576 -6.20753
lowerback 12.0024 7.60909 -5.20274
upperback 4.1529 9.30477 -3.52602
thorax -2.50937 4.60652 -2.11276
lowerneck 1.09879 -4.10565 3.23475
upperneck 0.385579 -5.43443 3.14122
head -0.0572962 -2.71751 0.445711
rclavicle -6.36111e-015 2.70347e-014
rhumerus -39.4821 22.9511 -92.6373
rradius 99.4728
rwrist -3.00447
rhand -20.3283 -25.1569
rfingers 7.12502
rthumb 6.02291 304.949
lclavicle -6.36111e-015 2.70347e-014
lhumerus -45.1321 15.8712 76.4381
lradius 31.3953
lwrist 1.07397
lhand 7.63229 9.48523
lfingers 7.12502
lthumb 32.8773 36.5112
rfemur -26.7447 -13.983 25.9154
rtibia 92.3774
rfoot 40.8737 19.9843
rtoes 19.1891
lfemur -59.3432 -17.4772 -8.25827
ltibia 74.7323
lfoot -16.8585 12.8387
ltoes 1.89163
932
root 2.85357 14.2797 39.6353 3.63154 0.441655 -5.98365
lowerback 11.747 7.6394 -5.17136
upperback 4.01348 9.36941 -3.35893
thorax -2.54301 4.63952 -1.9447
lowerneck 1.03328 -4.15571 3.122
upperneck 0.428306 -5.50743 3.0481
head -0.0334241 -2.7526 0.433734
rclavicle 2.38542e-015 -1.90833e-014
rhumerus -39.6201 22.6428 -91.8587
rradius 98.6913
rwrist -2.97601
rhand -19.6507 -24.2411
rfingers 7.12502
rthumb 6.67706 305.884
lclavicle 2.38542e-015 -1.90833e-014
lhumerus -45.4867 16.1071 75.6145
lradius 31.6331
lwrist 1.87795
lhand 7.74067 9.63576
lfingers 7.12502
lthumb 32.9804 36.6401
rfemur -28.9108 -14.5658 25.0538
rtibia 94.9027
rfoot 37.1994 18.6206
rtoes 14.0709
lfemur -57.5893 -17.3709 -8.92156
ltibia 74.2468
lfoot -17.2802 13.3779
ltoes 2.68218
933
root 2.90119 14.3476 39.7477 3.06685 -0.54034 -5.71344
lowerback 11.5571 7.63826 -5.10876
upperback 3.87386 9.3902 -3.20777
thorax -2.60415 4.65138 -1.81208
lowerneck 0.951657 -4.17278 3.06206
upperneck 0.527061 -5.53779 2.87819
head 0.00626375 -2.76496 0.389059
rclavicle -7.95139e-016 -1.27222e-014
rhumerus -39.7642 22.3314 -91.0717
rradius 97.822
rwrist -2.90718
rhand -19.0712 -23.5144
rfingers 7.12502
rthumb 7.2364 306.629
lclavicle -7.95139e-016 -1.27222e-014
lhumerus -45.8946 16.3908 74.6296
lradius 31.8496
lwrist 2.72451
lhand 7.81052 9.80721
lfingers 7.12502
lthumb 33.0468 36.7975
rfemur -31.1644 -15.0309 24.1606
rtibia 97.383
rfoot 33.5842 16.7548
rtoes 9.68174
lfemur -55.7813 -17.1481 -9.68132
ltibia 73.7068
lfoot -17.7168 13.7585
ltoes 3.55808
